<?xml version="1.0" encoding="utf-8"?><svg xmlns="http://www.w3.org/2000/svg" xmlns:xlink="http://www.w3.org/1999/xlink"><symbol id="alarm" viewBox="0 0 32 30.5" xmlns="http://www.w3.org/2000/svg"><g id="aLayer_2"><g id="aservice"><g id="a_1"><path class="ast0" d="M9.7 1.3C7.1-.7 3.3-.3 1.3 2.4c-1.7 2.2-1.7 5.2 0 7.4 1.6-3.9 4.6-6.9 8.4-8.5zM26.1 0c-1.3 0-2.6.4-3.6 1.3 3.7 1.6 6.7 4.5 8.2 8.2 2-2.5 1.6-6.2-1-8.2-1-.9-2.3-1.3-3.6-1.3zM22 14.5h-4.5V8c0-.8-.7-1.5-1.5-1.5s-1.5.7-1.5 1.5v8c0 .8.7 1.5 1.5 1.5h6c.8 0 1.5-.7 1.5-1.5s-.7-1.5-1.5-1.5zm-6-13C8 1.5 1.5 8 1.5 16c0 3.7 1.4 7.3 3.9 9.9l-2 2c-.6.6-.5 1.6.1 2.1s1.5.5 2 0l2.2-2.1c5 3.5 11.6 3.5 16.6 0l2.2 2.2c.6.6 1.5.6 2.1 0s.6-1.5 0-2.1l-2-2c5.5-5.8 5.3-15-.5-20.5-2.7-2.6-6.4-4-10.1-4zm0 26C9.6 27.5 4.5 22.4 4.5 16S9.6 4.5 16 4.5 27.5 9.6 27.5 16 22.4 27.5 16 27.5z" id="aALARM"/></g></g></g></symbol>

<symbol id="bubble" viewBox="0 0 16 14.3" xmlns="http://www.w3.org/2000/svg"><g id="bLayer_2"><g id="bblog"><g id="b_1"><path class="bst0" d="M8.4 0C3.7 0 0 2.8 0 6.1c.1 2 1.3 3.8 3.1 4.8.4.3.5 2.2-2 3.3 2.2.3 4.3-.6 5.7-2.2.6.1 1.1.2 1.7.2 4.7 0 7.6-2.7 7.6-6.1S13.1 0 8.4 0zM4.3 7.8c-.8 0-1.5-.7-1.5-1.5s.7-1.5 1.5-1.5 1.5.7 1.5 1.5-.7 1.5-1.5 1.5zm3.7 0c-.8 0-1.5-.7-1.5-1.5S7.2 4.8 8 4.8s1.5.7 1.5 1.5S8.8 7.8 8 7.8zm3.8 0c-.8 0-1.5-.7-1.5-1.5s.7-1.5 1.5-1.5 1.5.7 1.5 1.5-.7 1.5-1.5 1.5z" id="bSPEECH_BUBBLE_2"/></g></g></g></symbol>

<symbol id="bubbles" viewBox="0 0 63 61" xmlns="http://www.w3.org/2000/svg"><g id="cLayer_2"><g id="cquote"><path class="cst0" d="M50.8 45.3L44.5 39H18c-3.3 0-6-2.7-6-6V12H3c-1.7 0-3 1.3-3 3v34c0 1.7 1.3 3 3 3h4v6c0 .2 0 .4.1.6 0 .1.1.3.1.4 0 .1 0 .1.1.2s.1.2.2.3c0 .1.1.1.1.2.1.1.2.3.3.4.5.6 1.3.9 2.1.9s1.6-.3 2.1-.9l8.1-8.1H52c1.7 0 3-1.3 3-3v-2c-1.5 0-3-.6-4.2-1.7zM60 0H18c-1.7 0-3 1.3-3 3v30c0 1.7 1.3 3 3 3h27.8l7.1 7.1c.6.6 1.3.9 2.1.9s1.5-.3 2.1-.9c.1-.1.2-.3.3-.4 0-.1.1-.1.1-.2.1-.1.1-.2.2-.3V42c0-.1.1-.3.1-.4.1-.2.1-.4.1-.6v-5h2c1.7 0 3-1.3 3-3V3c.1-1.7-1.2-3-2.9-3z" id="cSPEECH_4"/></g></g></symbol>

<symbol viewBox="0 0 17.6 14.02" id="cart" xmlns="http://www.w3.org/2000/svg"><defs></defs><g id="dLayer_2" data-name="Layer 2"><g id="dbanner"><g id="dmenu"><path class="dcls-1" d="M15.05 8.59l2.47-5.5a.82.82 0 0 0-.75-1.16H4.56L4.08.55A.82.82 0 0 0 3.3 0H.83a.82.82 0 1 0 0 1.65h1.88l3.18 9.07H4.4a1.65 1.65 0 1 0 1.65 1.65h7.7a1.65 1.65 0 1 0 1.65-1.65H7.64l-.41-1.17 7.13-.48a.82.82 0 0 0 .69-.48zm-8.39-.66L5.14 3.58H15.5l-1.75 3.88z" id="dSHOPPING_CART" data-name="SHOPPING CART"/></g></g></g></symbol>

<symbol id="darts" viewBox="0 0 32 32" xmlns="http://www.w3.org/2000/svg"><g id="eLayer_2"><g id="eservice_2"><g id="eweb_design"><path class="est0" d="M16 13c-1.7 0-3 1.3-3 3s1.3 3 3 3 3-1.3 3-3-1.3-3-3-3zm0-6.5c-5.2 0-9.5 4.3-9.5 9.5s4.3 9.5 9.5 9.5 9.5-4.3 9.5-9.5-4.3-9.5-9.5-9.5zm0 16c-3.6 0-6.5-2.9-6.5-6.5s2.9-6.5 6.5-6.5 6.5 2.9 6.5 6.5-2.9 6.5-6.5 6.5zM16 0C7.2 0 0 7.2 0 16s7.2 16 16 16 16-7.2 16-16S24.8 0 16 0zm0 29C8.8 29 3 23.2 3 16S8.8 3 16 3s13 5.8 13 13-5.8 13-13 13z" id="eBULLSEYE"/></g></g></g></symbol>

<symbol id="display" viewBox="0 0 31 28" xmlns="http://www.w3.org/2000/svg"><g id="fLayer_2"><g id="fservice"><g id="f_3"><path class="fst0" d="M13.4 13.6c.6.6 1.5.6 2.1 0l4-4c.7-.6.7-1.6.1-2.2-.6-.6-1.5-.6-2.1-.1 0 0-.1 0-.1.1l-2.9 2.9-.9-.9c-.6-.5-1.6-.5-2.2.1-.5.6-.5 1.5 0 2l2 2.1zM29.5 0h-28C.7 0 0 .7 0 1.5v20c0 .8.7 1.5 1.5 1.5H11v2.5l-2 2v.5h13v-.5l-2-2V23h9.5c.8 0 1.5-.7 1.5-1.5v-20c0-.8-.7-1.5-1.5-1.5zM29 19H2V2h27v17z" id="fCOMPUTER_OK"/></g></g></g></symbol>

<symbol id="dribbble" viewBox="0 0 16 16" xmlns="http://www.w3.org/2000/svg"><g id="gLayer_2"><g id="gfooter"><g id="g_1"><g id="gicons"><path class="gst0" d="M15.8 6.4C15 2.1 10.7-.7 6.4.1 2.7.9 0 4.2 0 8c0 .5.1 1.1.2 1.6.2 1 .6 2 1.2 2.9.6.9 1.3 1.6 2.2 2.2 2.7 1.8 6.2 1.8 8.9 0 .9-.6 1.6-1.3 2.2-2.2 1.1-1.8 1.6-4 1.1-6.1zM8 1.2c1.7 0 3.3.6 4.5 1.7-.9 1.2-2.2 2-3.6 2.5C8.2 4 7.3 2.6 6.4 1.3c.5-.1 1.1-.1 1.6-.1zm-1.6.2zm-1.3.4c.9 1.3 1.7 2.6 2.5 4-2 .5-4.2.8-6.3.8.5-2.1 1.9-3.9 3.8-4.8zM2.9 12.6C1.8 11.3 1.2 9.7 1.2 8v-.2c2.4 0 4.7-.3 7-1L8.8 8h-.4c-2.3.8-4.2 2.4-5.5 4.6zM8 14.8c-1.5 0-3-.5-4.2-1.5l-.2-.1.2.1c1.2-2 3.1-3.6 5.3-4.2.7 1.7 1.1 3.4 1.5 5.2-.8.4-1.7.5-2.6.5zm3.8-1.1c-.3-1.7-.7-3.3-1.3-4.9 1.4-.2 2.9-.1 4.3.3-.3 1.8-1.4 3.5-3 4.6zm-1.7-6l-.2-.4c-.1-.3-.3-.7-.4-1 1.5-.5 2.8-1.5 3.8-2.7 1 1.2 1.5 2.7 1.6 4.3-1.6-.3-3.2-.4-4.8-.2z" id="gdribbble"/></g></g></g></g></symbol>

<symbol id="enlarge" viewBox="0 0 32 32" xmlns="http://www.w3.org/2000/svg"><g id="hLayer_2"><g id="hservice"><g id="h_6"><path class="hst0" d="M20 27.5h7.5V20c0-.8-.7-1.5-1.5-1.5s-1.5.7-1.5 1.5v4.5H20c-.8 0-1.5.7-1.5 1.5s.7 1.5 1.5 1.5zm-14-14c.8 0 1.5-.7 1.5-1.5V7.5H12c.8 0 1.5-.7 1.5-1.5s-.7-1.5-1.5-1.5H4.5V12c0 .8.7 1.5 1.5 1.5zm14-6h4.5V12c0 .8.7 1.5 1.5 1.5s1.5-.7 1.5-1.5V4.5H20c-.8 0-1.5.7-1.5 1.5s.7 1.5 1.5 1.5zM30.5 0h-29C.7 0 0 .7 0 1.5v29c0 .8.7 1.5 1.5 1.5h29c.8 0 1.5-.7 1.5-1.5v-29c0-.8-.7-1.5-1.5-1.5zM29 29H3V3h26v26zm-17-1.5c.8 0 1.5-.7 1.5-1.5s-.7-1.5-1.5-1.5H7.5V20c0-.8-.7-1.5-1.5-1.5s-1.5.7-1.5 1.5v7.5H12z" id="hIMAGE"/></g></g></g></symbol>

<symbol id="equalizer" viewBox="0 0 28 32" xmlns="http://www.w3.org/2000/svg"><g id="iLayer_2"><g id="iservice_2"><g id="icreativity"><path class="ist0" d="M4.5 11.5h-3c-.8 0-1.5.7-1.5 1.5v6c0 .8.7 1.5 1.5 1.5h3c.8 0 1.5-.7 1.5-1.5v-6c0-.8-.7-1.5-1.5-1.5zm0-10C4.5.7 3.8 0 3 0S1.5.7 1.5 1.5V10h3V1.5zm11 0C15.5.7 14.8 0 14 0s-1.5.7-1.5 1.5V14h3V1.5zm11 0C26.5.7 25.8 0 25 0s-1.5.7-1.5 1.5V6h3V1.5zm-25 29c0 .8.7 1.5 1.5 1.5s1.5-.7 1.5-1.5V22h-3v8.5zm25-23h-3c-.8 0-1.5.7-1.5 1.5v6c0 .8.7 1.5 1.5 1.5h3c.8 0 1.5-.7 1.5-1.5V9c0-.8-.7-1.5-1.5-1.5zm-3 23c0 .8.7 1.5 1.5 1.5s1.5-.7 1.5-1.5V18h-3v12.5zm-8-15h-3c-.8 0-1.5.7-1.5 1.5v6c0 .8.7 1.5 1.5 1.5h3c.8 0 1.5-.7 1.5-1.5v-6c0-.8-.7-1.5-1.5-1.5zm-3 15c0 .8.7 1.5 1.5 1.5s1.5-.7 1.5-1.5V26h-3v4.5z" id="iEQUALIZER"/></g></g></g></symbol>

<symbol id="eye" viewBox="0 0 19.4 11.3" xmlns="http://www.w3.org/2000/svg"><g id="jLayer_2"><g id="jblog"><g id="j_1"><path class="jst0" d="M9.7 3.7c-1 0-1.8.8-1.8 1.8s.8 1.8 1.8 1.8 1.8-.8 1.8-1.8-.8-1.8-1.8-1.8zm9.7 1.9c0-.2-.1-.3-.2-.4-.6-.7-1.3-1.4-2.1-2-1.6-1.4-3.5-2.4-5.5-3-1.2-.3-2.4-.3-3.6 0-1 .2-2 .5-3 1.1-1.5.8-2.9 1.8-4.1 3.1-.3.2-.5.4-.7.7-.2.3-.2.7 0 1 .6.7 1.3 1.4 2.1 2 1.6 1.4 3.5 2.4 5.5 2.9 1.2.3 2.4.3 3.5.1 1.1-.2 2.1-.5 3.1-1.1 1.5-.8 2.9-1.9 4.1-3.1.2-.2.5-.5.6-.7.1-.1.2-.3.2-.4l.1-.2zM9.7 9.1c-2 0-3.6-1.6-3.6-3.6s1.6-3.6 3.6-3.6 3.6 1.6 3.6 3.6c.1 2-1.6 3.6-3.6 3.6z" id="jVIEW"/></g></g></g></symbol>

<symbol viewBox="0 0 12.01 25.61" id="facebook" xmlns="http://www.w3.org/2000/svg"><defs></defs><title>svgAsset 16</title><g id="kLayer_2" data-name="Layer 2"><g id="kour_team" data-name="our team"><g id="k_1" data-name="1"><g id="kshare"><path class="kcls-1" d="M8 8.83c0-1.34-.21-3.2.21-3.84.76-1.16 3.8-.86 3.8-.86V0C7.19 0 5.62-.19 4 1.48 2.51 3 2.47 5.88 2.35 8.83H0v4h2.38v12.75H8V12.81h3.22c.25-1.35.49-2.41.84-4z" id="kfacebook"/></g></g></g></g></symbol>

<symbol id="google-plus" viewBox="0 0 16 13.8" xmlns="http://www.w3.org/2000/svg"><g id="lLayer_2"><g id="lfooter"><g id="l_1"><g id="licons"><path class="lst0" d="M13.5 2.5V0h-1v2.5H10v1h2.5v2.4h1V3.5H16v-1h-2.5zM8.9 0H4.7C2.8 0 1 1.5 1 3.1c0 1.7 1.4 3.1 3.1 3.1h.5c-.2.2-.2.5-.2.8 0 .4.2.9.6 1.1h-.8c-2.3 0-4.2 1.5-4.2 3s2 2.6 4.4 2.6c2.7 0 4.1-1.7 4.1-3.2.1-1-.5-2.1-1.4-2.6-.4-.3-1.2-.9-1.2-1.3s.1-.7.8-1.2c.8-.5 1.2-1.2 1.3-2.1 0-1-.5-1.9-1.4-2.3h1.3l1-1zM7.4 10.3c0 .1.1.3.1.4 0 1.2-.8 2-3.1 2-1.6 0-2.8-.9-2.8-2.1S3 8.5 4.7 8.5c.3 0 .7.1 1 .2.9.6 1.5.9 1.7 1.6zM4.8 5.8c-1.3-.2-2.2-1.3-2.3-2.6C2.3 1.8 3 .7 4.1.8 5.4 1 6.4 2 6.5 3.3c.2 1.4-.6 2.5-1.7 2.5z" id="lgoogle_plus"/></g></g></g></g></symbol>

<symbol id="home" viewBox="0 0 32 30.5" xmlns="http://www.w3.org/2000/svg"><g id="mLayer_2"><g id="mservice"><g id="m_5"><path class="mst0" d="M3 18.5V29c0 .8.7 1.5 1.5 1.5h14v-12h6v12h3c.8 0 1.5-.7 1.5-1.5V18.5l-13-13-13 13zm10.5 6h-6v-6h6v6zM31.6 15L26 9.4V5c0-.8-.7-1.5-1.5-1.5S23 4.2 23 5v1.4L17.1.5c-.2-.3-.6-.5-.9-.5H16c-.4 0-.8.2-1.1.5L.5 14.9c-.6.6-.7 1.5-.1 2.1s1.5.7 2.1.1l.1-.1L16 3.6l13.5 13.5c.7.5 1.6.4 2.1-.3.4-.5.4-1.3 0-1.8z" id="mHOME"/></g></g></g></symbol>

<symbol viewBox="0 0 30 30" id="image" xmlns="http://www.w3.org/2000/svg"><defs></defs><g id="nLayer_2" data-name="Layer 2"><g id="nwork"><g id="npic"><g id="nhover"><path class="ncls-1" d="M10 13a3 3 0 1 0-3-3 3 3 0 0 0 3 3zm20-7a1.5 1.5 0 0 0-1-1.41V2.91A1.5 1.5 0 1 0 27.09 1h-1.68a1.49 1.49 0 0 0-2.82 0h-1.68a1.49 1.49 0 0 0-2.82 0h-1.68a1.49 1.49 0 0 0-2.82 0h-1.68a1.49 1.49 0 0 0-2.82 0H7.41a1.49 1.49 0 0 0-2.82 0H2.91A1.5 1.5 0 1 0 1 2.91v1.68a1.49 1.49 0 0 0 0 2.82v1.68a1.49 1.49 0 0 0 0 2.82v1.68a1.49 1.49 0 0 0 0 2.82v1.68a1.49 1.49 0 0 0 0 2.82v1.68a1.49 1.49 0 0 0 0 2.82v1.68A1.5 1.5 0 1 0 2.91 29h1.68a1.49 1.49 0 0 0 2.82 0h1.68a1.49 1.49 0 0 0 2.82 0h1.68a1.49 1.49 0 0 0 2.82 0h1.68a1.49 1.49 0 0 0 2.82 0h1.68a1.49 1.49 0 0 0 2.82 0h1.68A1.5 1.5 0 1 0 29 27.09v-1.68a1.49 1.49 0 0 0 0-2.82v-1.68a1.49 1.49 0 0 0 0-2.82v-1.68a1.49 1.49 0 0 0 0-2.82v-1.68a1.49 1.49 0 0 0 0-2.82V7.41A1.5 1.5 0 0 0 30 6zm-4 20H4V4h22zm-1.5-7.5l-4.5-7-7 8.5-1.5-1.5-6 6h19z" id="nPICTURE"/></g></g></g></g></symbol>

<symbol id="instagram" viewBox="0 0 16 16" xmlns="http://www.w3.org/2000/svg"><g id="oLayer_2"><g id="ofooter"><g id="o_1"><g id="oicons"><path class="ost0" d="M14 0H2C.9 0 0 .9 0 2v12c0 1.1.9 2 2 2h12c1.1 0 2-.9 2-2V2c0-1.1-.9-2-2-2zM4.9 7.7v-.4c0-.1 0-.1.1-.2v-.2l.1-.2c.7-1.6 2.6-2.2 4.1-1.5.7.3 1.2.8 1.5 1.5l.1.2V7c0 .1 0 .1.1.2v.4c.6 1.6-.2 3.4-1.8 4s-3.4-.2-4-1.8c-.3-.6-.3-1.2-.2-1.8v-.3zm9.3 5.7c0 .4-.4.8-.8.8H2.6c-.4 0-.8-.4-.8-.8V6.7h1.5c-.7 2.6.8 5.3 3.4 6s5.3-.8 6-3.4c.2-.8.2-1.7 0-2.6h1.5v6.7zm0-9.2c0 .4-.4.8-.8.8h-1.6c-.4 0-.8-.4-.8-.8V2.6c0-.4.4-.8.8-.8h1.6c.4 0 .8.4.8.8v1.6z" id="oinstagram"/></g></g></g></g></symbol>

<symbol id="location" viewBox="0 0 19.2 25.6" xmlns="http://www.w3.org/2000/svg"><g id="pLayer_2"><g id="pmap"><path class="pst0" d="M9.6 6.4c-1.8 0-3.2 1.4-3.2 3.2s1.4 3.2 3.2 3.2 3.2-1.4 3.2-3.2c0-1.8-1.4-3.2-3.2-3.2zm0-6.4C4.3 0 0 4.3 0 9.6s9.6 16 9.6 16 9.6-10.7 9.6-16c0-5.3-4.3-9.6-9.6-9.6zm0 16c-3.5 0-6.4-2.9-6.4-6.4 0-3.5 2.9-6.4 6.4-6.4 3.5 0 6.4 2.9 6.4 6.4 0 3.5-2.9 6.4-6.4 6.4z" id="pPIN_2"/></g></g></symbol>

<symbol id="newspaper" viewBox="0 0 32 32" xmlns="http://www.w3.org/2000/svg"><g id="qLayer_2"><g id="qservice"><g id="q_4"><path class="qst0" d="M5.4 16.4l5.5 2.5c.7.4 1.6.1 2-.7.4-.7.1-1.6-.7-2h-.1l-5.5-2.5c-.8-.3-1.6 0-2 .8-.2.7.1 1.5.8 1.9zm0-5.5l5.5 2.5c.7.4 1.6.1 2-.7s.1-1.6-.7-2h-.1L6.6 8.1c-.8-.3-1.6 0-2 .8-.2.8.1 1.6.8 2zm15.1 13.6c.2 0 .4 0 .6-.1l5.5-2.5c.8-.3 1.1-1.2.8-2-.3-.8-1.2-1.1-2-.8h-.1l-5.5 2.5c-.8.3-1.1 1.2-.8 2 .4.6.9.9 1.5.9zM5.4 21.9l5.5 2.5c.7.4 1.6.1 2-.7.4-.7.1-1.6-.7-2h-.1l-5.5-2.5c-.8-.3-1.6 0-2 .8-.2.7.1 1.5.8 1.9zM30.5 0c-.2 0-.4 0-.6.1L16 5.9 2.1.1C1.3-.2.5.1.1.9c-.1.2-.1.4-.1.6v23c0 .6.4 1.2.9 1.4l14.5 6c.4.2.8.2 1.2 0l14.5-6c.6-.2.9-.8.9-1.4v-23c0-.8-.7-1.5-1.5-1.5zm-16 28.3L3 23.5V3.7l11.5 4.8v19.8zM29 23.5l-11.5 4.8V8.5L29 3.7v19.8zM20.5 19c.2 0 .4 0 .6-.1l5.5-2.5c.7-.4 1-1.3.7-2-.4-.7-1.2-1-1.9-.7l-5.5 2.5c-.8.3-1.1 1.2-.7 2 .2.5.7.8 1.3.8zm0-5.5c.2 0 .4 0 .6-.1l5.5-2.5c.8-.3 1.1-1.2.8-2s-1.2-1.1-2-.8h-.1l-5.5 2.5c-.8.3-1.1 1.2-.8 2 .4.6.9.9 1.5.9z" id="qBOOK_2"/></g></g></g></symbol>

<symbol id="pinterest" viewBox="0 0 19.6 25.7" xmlns="http://www.w3.org/2000/svg"><g id="rLayer_2"><g id="rour_team"><g id="r_1"><g id="rshare"><path class="rst0" d="M19.2 6.3c-.3-1.2-1-2.3-1.8-3.3-.8-.9-1.9-1.7-3-2.2-1.4-.6-2.9-.9-4.3-.8-.6 0-1.1.1-1.7.1-1.3.2-2.7.7-3.9 1.4C2.3 2.8.7 5.1.2 7.6 0 8.7 0 9.8.2 10.9c.2 1.5 1.1 2.9 2.4 3.7.2.1.4.2.6.2.5 0 .5-.6.6-1s.3-.8.1-1.2-.3-.4-.5-.6c-.4-.7-.6-1.5-.6-2.4 0-1.2.3-2.4.8-3.4 1-1.9 2.8-3.2 4.9-3.6 1.3-.2 2.5-.1 3.8.2 1 .3 1.9.9 2.5 1.7.7.9 1.1 2 1.1 3.1 0 .7 0 1.3-.1 2-.1 1.7-.7 3.3-1.7 4.7-.6.9-1.6 1.5-2.6 1.6-.6 0-1.2-.1-1.6-.5-.4-.3-.7-.8-.9-1.3-.1-.6 0-1.2.2-1.8.3-1.2.7-2.1.9-3.3.2-.6.2-1.3.1-1.9 0-.4-.3-.8-.8-1.1-.5-.3-1.1-.3-1.7-.1-1 .4-1.7 1.2-1.9 2.3-.2.6-.2 1.3-.1 1.9.1.6.2 1.2.4 1.7 0 .2 0 .3-.1.4-.5 2.1-1 4.1-1.4 6.2-.3 1.1-.5 2.3-.5 3.5-.1 1.1-.1 2.2 0 3.3 0 .2 0 .3.2.3s.1.3.6-.4c.9-1.1 1.5-2.2 2-3.5.3-.8.5-1.6.7-2.5.2-.9.4-1.7.6-2.6.3.5.8 1 1.3 1.2.6.3 1.3.5 2 .6.8 0 1.5-.1 2.2-.3.6-.2 1.2-.5 1.8-.8 2.1-1.5 3.5-3.9 3.8-6.5.2-.8.3-1.6.3-2.4 0-.5-.2-1.3-.4-2z" id="rpinterest"/></g></g></g></g></symbol>

<symbol id="search" viewBox="0 0 17.6 17.6" xmlns="http://www.w3.org/2000/svg"><g id="sLayer_2"><g id="sbanner"><g id="smenu"><path class="sst0" d="M17.1 14.8L12.3 10c1.9-3.1.8-7.2-2.3-9.1S2.7.1.9 3.2s-.8 7.2 2.3 9.1c2.1 1.2 4.7 1.2 6.7 0l4.8 4.8c.7.6 1.7.6 2.3-.1.7-.6.7-1.6.1-2.2zM6.6 11.6c-2.8 0-5-2.2-5-4.9s2.2-5 4.9-5c2.8 0 5 2.2 5 4.9.1 2.7-2.2 4.9-4.9 5z" id="sMAGNIFYING_GLASS"/></g></g></g></symbol>

<symbol id="stats-dots" viewBox="0 0 32 32" xmlns="http://www.w3.org/2000/svg"><g id="tLayer_2"><g id="tservice"><g id="t_2"><path class="tst0" d="M6 19c.3 0 .6-.1.8-.3l3.1-2 6.7 4.4c.5.4 1.2.4 1.7 0l8.5-6c.7-.5.8-1.4.3-2.1-.5-.7-1.4-.8-2.1-.3l-7.6 5.4-6.6-4.4c-.5-.3-1.1-.3-1.6 0l-4 2.5c-.7.4-.9 1.4-.5 2.1.3.4.8.7 1.3.7zM30.5 0h-29C.7 0 0 .7 0 1.5v29c0 .8.7 1.5 1.5 1.5h29c.8 0 1.5-.7 1.5-1.5v-29c0-.8-.7-1.5-1.5-1.5zM29 29H3V3h26v26z" id="tLINE_GRAPH"/></g></g></g></symbol>

<symbol id="tumblr" viewBox="0 0 10 16" xmlns="http://www.w3.org/2000/svg"><g id="uLayer_2"><g id="ufooter"><g id="u_1"><g id="uicons"><path class="ust0" d="M7.6 13.4c-.4 0-.8-.1-1.2-.3-.3-.2-.5-.4-.6-.7-.1-.6-.1-1.2-.1-1.7V6.6h3.7V3.7H5.7V0H3.4c0 .7-.2 1.4-.5 2-.3.5-.6 1-1.1 1.4-.5.4-1.2.7-1.8.9v2.3h2.2v5.6c0 .6.1 1.1.2 1.7.2.4.5.8.8 1.1.4.4.9.6 1.4.8.6.1 1.2.2 1.8.2.6 0 1.2-.1 1.8-.2.6-.2 1.3-.4 1.9-.7v-2.5c-.8.5-1.6.8-2.5.8z" id="utumblr"/></g></g></g></g></symbol>

<symbol id="twitter" viewBox="0 0 25.6 20.8" xmlns="http://www.w3.org/2000/svg"><g id="vLayer_2"><g id="vour_team"><g id="v_1"><g id="vshare"><path class="vst0" d="M22.6 3.3c.2-.1.4-.3.6-.4.8-.6 1.4-1.5 1.7-2.5l-.6.4c-.8.5-1.7.8-2.7.9C20.5.5 19-.1 17.4 0l-.6.1c-.4.1-.8.2-1.2.4-1.5.6-2.6 1.9-3 3.5-.2.8-.2 1.7 0 2.5-.8 0-1.6-.1-2.4-.3C7.9 5.6 5.7 4.5 3.8 3c-.5-.4-1.1-.9-1.5-1.5-.2-.1-.4-.3-.5-.5-.3.4-.5.9-.6 1.3-.4 1.7 0 3.5 1.2 4.8.3.3.7.5 1 .8-.2 0-.5 0-.7-.1-.4 0-.8-.1-1.1-.2L1 7.3c-.1 1.8.9 3.6 2.5 4.5.5.4 1.1.6 1.7.7-.3.3-1.8.2-2.3.1.5 1.6 1.7 2.9 3.3 3.4.5.2 1 .3 1.6.3-.4.4-.9.7-1.4.9-1 .5-2 .9-3.2 1.1-.5.1-1 .1-1.5.2-.6 0-1.1 0-1.7-.1l.5.3c.5.3 1 .5 1.5.8 1 .4 2 .8 3.1 1 2.5.5 5 .4 7.4-.3 5.5-1.7 9-5.7 10.3-11.6.2-1.2.2-2.3.2-3.4l.8-.7c.7-.6 1.3-1.2 1.8-2-.9.4-1.9.7-3 .8z" id="vtwitter"/></g></g></g></g></symbol>

<symbol viewBox="0 0 31.95 22.52" id="users" xmlns="http://www.w3.org/2000/svg"><g id="wLayer_2" data-name="Layer 2"><g id="wabout_us" data-name="about us"><g id="wpics"><g id="w_1" data-name="1"><path class="wcls-1" d="M20.42 16c-1.84-.91-1.13-.21-3.4-1.15s-2.8-1.24-2.8-1.24v-2.14a4 4 0 0 0 1.11-2.67c.53.15.71-.62.74-1.11s.31-2-.33-1.82a13.21 13.21 0 0 0 .19-2.36C15.75 1.86 14.59.13 11.68 0a4.28 4.28 0 0 0-4.24 3.53 13.09 13.09 0 0 0 .18 2.36c-.62-.14-.37 1.35-.34 1.82S7.49 9 8 8.82a4 4 0 0 0 1.13 2.68v2.15a26 26 0 0 1-2.8 1.26C4 15.84 4.75 15.1 2.91 16 0 17.46 0 21.43 0 21.43a1.09 1.09 0 0 0 1.09 1.09h21.15a1.09 1.09 0 0 0 1.09-1.09s0-3.97-2.91-5.43zM32 21.53s0-3.61-2.65-4.93c-1.68-.83-1-.19-3.09-1s-2.55-1.13-2.55-1.13v-1.95a3.64 3.64 0 0 0 1-2.43c.48.14.64-.56.67-1s.28-1.78-.3-1.66a12 12 0 0 0 .17-2.15C25.05 3.73 24 2.15 21.35 2a3.89 3.89 0 0 0-3.86 3.21 11.92 11.92 0 0 0 .16 2.15c-.59-.12-.34 1.23-.31 1.66s.19 1.15.67 1a3.66 3.66 0 0 0 1 2.43v2a6 6 0 0 1 2.21.73c3.3 1.64 3.3 6.14 3.3 6.14a1.24 1.24 0 0 1-1 1.21H31a1 1 0 0 0 1-1z" id="wUSERS"/></g></g></g></g></symbol>

<symbol id="yuotube" viewBox="0 0 16 11" xmlns="http://www.w3.org/2000/svg"><g id="xLayer_2"><g id="xfooter">
<g id="x_1"><g id="xicons"><path class="xst0" d="M13.5 0H2.9C1.5 0 0 .9 0 2.2v6.6C0 10.2 1.5 11 2.9 11h10.7c1.2.1 2.3-.7 2.4-2V2.2C16 1 14.9 0 13.6 0h-.1zM7 8V3l3.5 2.5L7 8z" id="xyoutube"/></g></g></g></g></symbol></svg>
