<?xml version="1.0" encoding="utf-8"?>
<!-- Generator: Adobe Illustrator 21.0.1, SVG Export Plug-In . SVG Version: 6.00 Build 0)  -->
<svg version="1.1" id="Layer_1" xmlns="http://www.w3.org/2000/svg" xmlns:xlink="http://www.w3.org/1999/xlink" x="0px" y="0px"
	 viewBox="0 0 32 30.5" style="enable-background:new 0 0 32 30.5;" xml:space="preserve">
<style type="text/css">
	.st0{fill:#FFFFFF;}
</style>
<title>svgAsset 6</title>
<g id="Layer_2">
	<g id="service">
		<g id="_1">
			<g id="ALARM">
				<path class="st0" d="M9.7,1.3c-2.6-2-6.4-1.6-8.4,1.1c-1.7,2.2-1.7,5.2,0,7.4C2.9,5.9,5.9,2.9,9.7,1.3z M26.1,0
					c-1.3,0-2.6,0.4-3.6,1.3c3.7,1.6,6.7,4.5,8.2,8.2c2-2.5,1.6-6.2-1-8.2C28.7,0.4,27.4,0,26.1,0z M22,14.5h-4.5V8
					c0-0.8-0.7-1.5-1.5-1.5c-0.8,0-1.5,0.7-1.5,1.5v8c0,0.8,0.7,1.5,1.5,1.5h6c0.8,0,1.5-0.7,1.5-1.5C23.5,15.2,22.8,14.5,22,14.5z
					 M16,1.5C8,1.5,1.5,8,1.5,16c0,3.7,1.4,7.3,3.9,9.9l-2,2c-0.6,0.6-0.5,1.6,0.1,2.1c0.6,0.5,1.5,0.5,2,0l2.2-2.1
					c5,3.5,11.6,3.5,16.6,0l2.2,2.2c0.6,0.6,1.5,0.6,2.1,0s0.6-1.5,0-2.1l-2-2c5.5-5.8,5.3-15-0.5-20.5C23.4,2.9,19.7,1.5,16,1.5z
					 M16,27.5C9.6,27.5,4.5,22.4,4.5,16S9.6,4.5,16,4.5S27.5,9.6,27.5,16S22.4,27.5,16,27.5z"/>
			</g>
		</g>
	</g>
</g>
</svg>
