<?xml version="1.0" encoding="utf-8"?>
<!-- Generator: Adobe Illustrator 21.0.1, SVG Export Plug-In . SVG Version: 6.00 Build 0)  -->
<svg version="1.1" id="Layer_1" xmlns="http://www.w3.org/2000/svg" xmlns:xlink="http://www.w3.org/1999/xlink" x="0px" y="0px"
	 viewBox="0 0 63 61" style="enable-background:new 0 0 63 61;" xml:space="preserve">
<style type="text/css">
	.st0{fill:#FFFFFF;}
</style>
<title>svgAsset 15</title>
<g id="Layer_2">
	<g id="quote">
		<g id="SPEECH_4">
			<path class="st0" d="M50.8,45.3L44.5,39H18c-3.3,0-6-2.7-6-6V12H3c-1.7,0-3,1.3-3,3l0,0v34c0,1.7,1.3,3,3,3h4v6
				c0,0.2,0,0.4,0.1,0.6c0,0.1,0.1,0.3,0.1,0.4c0,0.1,0,0.1,0.1,0.2c0.1,0.1,0.1,0.2,0.2,0.3c0,0.1,0.1,0.1,0.1,0.2
				c0.1,0.1,0.2,0.3,0.3,0.4l0,0C8.4,60.7,9.2,61,10,61l0,0c0.8,0,1.6-0.3,2.1-0.9l8.1-8.1H52c1.7,0,3-1.3,3-3v-2
				C53.5,47,52,46.4,50.8,45.3L50.8,45.3z M60,0H18c-1.7,0-3,1.3-3,3v30c0,1.7,1.3,3,3,3h27.8l7.1,7.1c0.6,0.6,1.3,0.9,2.1,0.9l0,0
				c0.8,0,1.5-0.3,2.1-0.9l0,0c0.1-0.1,0.2-0.3,0.3-0.4c0-0.1,0.1-0.1,0.1-0.2c0.1-0.1,0.1-0.2,0.2-0.3c0,0,0-0.1,0-0.2
				c0-0.1,0.1-0.3,0.1-0.4c0.1-0.2,0.1-0.4,0.1-0.6v-5h2c1.7,0,3-1.3,3-3V3C63,1.3,61.7,0,60,0z"/>
		</g>
	</g>
</g>
</svg>
