<?xml version="1.0" encoding="utf-8"?>
<!-- Generator: Adobe Illustrator 21.0.1, SVG Export Plug-In . SVG Version: 6.00 Build 0)  -->
<svg version="1.1" id="Layer_1" xmlns="http://www.w3.org/2000/svg" xmlns:xlink="http://www.w3.org/1999/xlink" x="0px" y="0px"
	 viewBox="0 0 16 14.3" style="enable-background:new 0 0 16 14.3;" xml:space="preserve">
<style type="text/css">
	.st0{fill:#FFFFFF;}
</style>
<title>svgAsset 22</title>
<g id="Layer_2">
	<g id="blog">
		<g id="_1">
			<g id="SPEECH_BUBBLE_2">
				<path class="st0" d="M8.4,0C3.7,0,0,2.8,0,6.1c0.1,2,1.3,3.8,3.1,4.8c0.4,0.3,0.5,2.2-2,3.3c2.2,0.3,4.3-0.6,5.7-2.2
					c0.6,0.1,1.1,0.2,1.7,0.2c4.7,0,7.6-2.7,7.6-6.1S13.1,0,8.4,0z M4.3,7.8c-0.8,0-1.5-0.7-1.5-1.5s0.7-1.5,1.5-1.5
					s1.5,0.7,1.5,1.5S5.1,7.8,4.3,7.8z M8,7.8c-0.8,0-1.5-0.7-1.5-1.5S7.2,4.8,8,4.8s1.5,0.7,1.5,1.5S8.8,7.8,8,7.8z M11.8,7.8
					c-0.8,0-1.5-0.7-1.5-1.5s0.7-1.5,1.5-1.5s1.5,0.7,1.5,1.5C13.3,7.1,12.6,7.8,11.8,7.8L11.8,7.8z"/>
			</g>
		</g>
	</g>
</g>
</svg>
