<svg xmlns="http://www.w3.org/2000/svg" viewBox="0 0 17.6 14.02"><defs><style>.cls-1{fill:#fff;fill-rule:evenodd;}</style></defs><title>svgAsset 3</title><g id="Layer_2" data-name="Layer 2"><g id="banner"><g id="menu"><g id="SHOPPING_CART" data-name="SHOPPING CART"><path class="cls-1" d="M15.05,8.59h0l2.47-5.5h0a.82.82,0,0,0-.75-1.16H4.56L4.08.55h0A.82.82,0,0,0,3.3,0H.83a.82.82,0,1,0,0,1.65H2.71l3.18,9.07H4.4a1.65,1.65,0,1,0,1.65,1.65h7.7a1.65,1.65,0,1,0,1.65-1.65H7.64L7.23,9.55l7.13-.48A.82.82,0,0,0,15.05,8.59ZM6.66,7.93,5.14,3.58H15.5L13.75,7.46Z"/></g></g></g></g></svg>