<?xml version="1.0" encoding="utf-8"?>
<!-- Generator: Adobe Illustrator 21.0.1, SVG Export Plug-In . SVG Version: 6.00 Build 0)  -->
<svg version="1.1" id="Layer_1" xmlns="http://www.w3.org/2000/svg" xmlns:xlink="http://www.w3.org/1999/xlink" x="0px" y="0px"
	 viewBox="0 0 32 32" style="enable-background:new 0 0 32 32;" xml:space="preserve">
<style type="text/css">
	.st0{fill:#FFFFFF;}
</style>
<title>svgAsset 14</title>
<g id="Layer_2">
	<g id="service_2">
		<g id="web_design">
			<g id="BULLSEYE">
				<path class="st0" d="M16,13c-1.7,0-3,1.3-3,3s1.3,3,3,3s3-1.3,3-3S17.7,13,16,13z M16,6.5c-5.2,0-9.5,4.3-9.5,9.5
					s4.3,9.5,9.5,9.5s9.5-4.3,9.5-9.5S21.2,6.5,16,6.5z M16,22.5c-3.6,0-6.5-2.9-6.5-6.5s2.9-6.5,6.5-6.5s6.5,2.9,6.5,6.5
					S19.6,22.5,16,22.5z M16,0C7.2,0,0,7.2,0,16s7.2,16,16,16s16-7.2,16-16S24.8,0,16,0z M16,29C8.8,29,3,23.2,3,16S8.8,3,16,3
					s13,5.8,13,13S23.2,29,16,29z"/>
			</g>
		</g>
	</g>
</g>
</svg>
