<?xml version="1.0" encoding="utf-8"?>
<!-- Generator: Adobe Illustrator 21.0.1, SVG Export Plug-In . SVG Version: 6.00 Build 0)  -->
<svg version="1.1" id="Layer_1" xmlns="http://www.w3.org/2000/svg" xmlns:xlink="http://www.w3.org/1999/xlink" x="0px" y="0px"
	 viewBox="0 0 31 28" style="enable-background:new 0 0 31 28;" xml:space="preserve">
<style type="text/css">
	.st0{fill:#FFFFFF;}
</style>
<title>svgAsset 7</title>
<g id="Layer_2">
	<g id="service">
		<g id="_3">
			<g id="COMPUTER_OK">
				<path class="st0" d="M13.4,13.6c0.6,0.6,1.5,0.6,2.1,0l4-4C20.2,9,20.2,8,19.6,7.4c-0.6-0.6-1.5-0.6-2.1-0.1c0,0-0.1,0-0.1,0.1
					l-2.9,2.9l-0.9-0.9C13,8.9,12,8.9,11.4,9.5c-0.5,0.6-0.5,1.5,0,2L13.4,13.6z M29.5,0h-28C0.7,0,0,0.7,0,1.5v20
					C0,22.3,0.7,23,1.5,23H11v2.5l-2,2V28h13v-0.5l-2-2V23h9.5c0.8,0,1.5-0.7,1.5-1.5v-20C31,0.7,30.3,0,29.5,0z M29,19H2V2h27V19z"
					/>
			</g>
		</g>
	</g>
</g>
</svg>
