<?xml version="1.0" encoding="utf-8"?>
<!-- Generator: Adobe Illustrator 21.0.1, SVG Export Plug-In . SVG Version: 6.00 Build 0)  -->
<svg version="1.1" id="Layer_1" xmlns="http://www.w3.org/2000/svg" xmlns:xlink="http://www.w3.org/1999/xlink" x="0px" y="0px"
	 viewBox="0 0 16 16" style="enable-background:new 0 0 16 16;" xml:space="preserve">
<style type="text/css">
	.st0{fill:#FFFFFF;}
</style>
<title>svgAsset 25</title>
<g id="Layer_2">
	<g id="footer">
		<g id="_1">
			<g id="icons">
				<g id="dribbble">
					<path class="st0" d="M15.8,6.4C15,2.1,10.7-0.7,6.4,0.1C2.7,0.9,0,4.2,0,8c0,0.5,0.1,1.1,0.2,1.6c0.2,1,0.6,2,1.2,2.9
						c0.6,0.9,1.3,1.6,2.2,2.2c2.7,1.8,6.2,1.8,8.9,0c0.9-0.6,1.6-1.3,2.2-2.2C15.8,10.7,16.3,8.5,15.8,6.4L15.8,6.4z M8,1.2
						c1.7,0,3.3,0.6,4.5,1.7c-0.9,1.2-2.2,2-3.6,2.5C8.2,4,7.3,2.6,6.4,1.3C6.9,1.2,7.5,1.2,8,1.2z M6.4,1.4L6.4,1.4z M5.1,1.8
						C6,3.1,6.8,4.4,7.6,5.8C5.6,6.3,3.4,6.6,1.3,6.6C1.8,4.5,3.2,2.7,5.1,1.8L5.1,1.8z M2.9,12.6C1.8,11.3,1.2,9.7,1.2,8
						c0-0.1,0-0.1,0-0.2c2.4,0,4.7-0.3,7-1c0.2,0.4,0.4,0.8,0.6,1.2L8.4,8C6.1,8.8,4.2,10.4,2.9,12.6L2.9,12.6z M8,14.8
						c-1.5,0-3-0.5-4.2-1.5l0,0l-0.2-0.1l0.2,0.1c1.2-2,3.1-3.6,5.3-4.2l0,0c0.7,1.7,1.1,3.4,1.5,5.2C9.8,14.7,8.9,14.8,8,14.8z
						 M11.8,13.7c-0.3-1.7-0.7-3.3-1.3-4.9c1.4-0.2,2.9-0.1,4.3,0.3C14.5,10.9,13.4,12.6,11.8,13.7L11.8,13.7z M10.1,7.7L9.9,7.3
						C9.8,7,9.6,6.6,9.5,6.3c1.5-0.5,2.8-1.5,3.8-2.7c1,1.2,1.5,2.7,1.6,4.3C13.3,7.6,11.7,7.5,10.1,7.7L10.1,7.7z"/>
				</g>
			</g>
		</g>
	</g>
</g>
</svg>
