<?xml version="1.0" encoding="utf-8"?>
<!-- Generator: Adobe Illustrator 21.0.1, SVG Export Plug-In . SVG Version: 6.00 Build 0)  -->
<svg version="1.1" id="Layer_1" xmlns="http://www.w3.org/2000/svg" xmlns:xlink="http://www.w3.org/1999/xlink" x="0px" y="0px"
	 viewBox="0 0 32 32" style="enable-background:new 0 0 32 32;" xml:space="preserve">
<style type="text/css">
	.st0{fill:#FFFFFF;}
</style>
<title>svgAsset 12</title>
<g id="Layer_2">
	<g id="service">
		<g id="_6">
			<g id="IMAGE">
				<path class="st0" d="M20,27.5h7.5V20c0-0.8-0.7-1.5-1.5-1.5s-1.5,0.7-1.5,1.5v4.5H20c-0.8,0-1.5,0.7-1.5,1.5S19.2,27.5,20,27.5z
					 M6,13.5c0.8,0,1.5-0.7,1.5-1.5V7.5H12c0.8,0,1.5-0.7,1.5-1.5S12.8,4.5,12,4.5H4.5V12C4.5,12.8,5.2,13.5,6,13.5z M20,7.5h4.5V12
					c0,0.8,0.7,1.5,1.5,1.5s1.5-0.7,1.5-1.5V4.5H20c-0.8,0-1.5,0.7-1.5,1.5S19.2,7.5,20,7.5z M30.5,0h-29C0.7,0,0,0.7,0,1.5v29
					C0,31.3,0.7,32,1.5,32h29c0.8,0,1.5-0.7,1.5-1.5v-29C32,0.7,31.3,0,30.5,0z M29,29H3V3h26V29z M12,27.5L12,27.5
					c0.8,0,1.5-0.7,1.5-1.5s-0.7-1.5-1.5-1.5H7.5V20c0-0.8-0.7-1.5-1.5-1.5S4.5,19.2,4.5,20v7.5H12z"/>
			</g>
		</g>
	</g>
</g>
</svg>
