<?xml version="1.0" encoding="utf-8"?>
<!-- Generator: Adobe Illustrator 21.0.1, SVG Export Plug-In . SVG Version: 6.00 Build 0)  -->
<svg version="1.1" id="Layer_1" xmlns="http://www.w3.org/2000/svg" xmlns:xlink="http://www.w3.org/1999/xlink" x="0px" y="0px"
	 viewBox="0 0 28 32" style="enable-background:new 0 0 28 32;" xml:space="preserve">
<style type="text/css">
	.st0{fill:#FFFFFF;}
</style>
<title>svgAsset 13</title>
<g id="Layer_2">
	<g id="service_2">
		<g id="creativity">
			<g id="EQUALIZER">
				<path class="st0" d="M4.5,11.5h-3C0.7,11.5,0,12.2,0,13v6c0,0.8,0.7,1.5,1.5,1.5h3C5.3,20.5,6,19.8,6,19v-6
					C6,12.2,5.3,11.5,4.5,11.5z M4.5,1.5C4.5,0.7,3.8,0,3,0S1.5,0.7,1.5,1.5V10h3V1.5z M15.5,1.5C15.5,0.7,14.8,0,14,0
					s-1.5,0.7-1.5,1.5V14h3V1.5z M26.5,1.5C26.5,0.7,25.8,0,25,0s-1.5,0.7-1.5,1.5V6h3V1.5z M1.5,30.5C1.5,31.3,2.2,32,3,32
					s1.5-0.7,1.5-1.5V22h-3V30.5z M26.5,7.5h-3C22.7,7.5,22,8.2,22,9v6c0,0.8,0.7,1.5,1.5,1.5h3c0.8,0,1.5-0.7,1.5-1.5V9
					C28,8.2,27.3,7.5,26.5,7.5z M23.5,30.5c0,0.8,0.7,1.5,1.5,1.5s1.5-0.7,1.5-1.5V18h-3V30.5z M15.5,15.5h-3
					c-0.8,0-1.5,0.7-1.5,1.5v6c0,0.8,0.7,1.5,1.5,1.5h3c0.8,0,1.5-0.7,1.5-1.5v-6C17,16.2,16.3,15.5,15.5,15.5z M12.5,30.5
					c0,0.8,0.7,1.5,1.5,1.5s1.5-0.7,1.5-1.5V26h-3V30.5z"/>
			</g>
		</g>
	</g>
</g>
</svg>
