<?xml version="1.0" encoding="utf-8"?>
<!-- Generator: Adobe Illustrator 21.0.1, SVG Export Plug-In . SVG Version: 6.00 Build 0)  -->
<svg version="1.1" id="Layer_1" xmlns="http://www.w3.org/2000/svg" xmlns:xlink="http://www.w3.org/1999/xlink" x="0px" y="0px"
	 viewBox="0 0 19.4 11.3" style="enable-background:new 0 0 19.4 11.3;" xml:space="preserve">
<style type="text/css">
	.st0{fill:#FFFFFF;}
</style>
<title>svgAsset 21</title>
<g id="Layer_2">
	<g id="blog">
		<g id="_1">
			<g id="VIEW">
				<path class="st0" d="M9.7,3.7c-1,0-1.8,0.8-1.8,1.8s0.8,1.8,1.8,1.8s1.8-0.8,1.8-1.8l0,0C11.5,4.5,10.7,3.7,9.7,3.7z M19.4,5.6
					L19.4,5.6L19.4,5.6L19.4,5.6L19.4,5.6c0-0.2-0.1-0.3-0.2-0.4c-0.6-0.7-1.3-1.4-2.1-2c-1.6-1.4-3.5-2.4-5.5-3
					c-1.2-0.3-2.4-0.3-3.6,0C7,0.4,6,0.7,5,1.3C3.5,2.1,2.1,3.1,0.9,4.4C0.6,4.6,0.4,4.8,0.2,5.1C0,5.4,0,5.8,0.2,6.1
					c0.6,0.7,1.3,1.4,2.1,2c1.6,1.4,3.5,2.4,5.5,2.9c1.2,0.3,2.4,0.3,3.5,0.1c1.1-0.2,2.1-0.5,3.1-1.1c1.5-0.8,2.9-1.9,4.1-3.1
					c0.2-0.2,0.5-0.5,0.6-0.7c0.1-0.1,0.2-0.3,0.2-0.4l0,0l0,0l0,0L19.4,5.6L19.4,5.6z M9.7,9.1c-2,0-3.6-1.6-3.6-3.6
					s1.6-3.6,3.6-3.6c2,0,3.6,1.6,3.6,3.6C13.4,7.5,11.7,9.1,9.7,9.1z"/>
			</g>
		</g>
	</g>
</g>
</svg>
