<?xml version="1.0" encoding="utf-8"?>
<!-- Generator: Adobe Illustrator 21.0.1, SVG Export Plug-In . SVG Version: 6.00 Build 0)  -->
<svg version="1.1" id="Layer_1" xmlns="http://www.w3.org/2000/svg" xmlns:xlink="http://www.w3.org/1999/xlink" x="0px" y="0px"
	 viewBox="0 0 16 13.8" style="enable-background:new 0 0 16 13.8;" xml:space="preserve">
<style type="text/css">
	.st0{fill:#FFFFFF;}
</style>
<title>svgAsset 27</title>
<g id="Layer_2">
	<g id="footer">
		<g id="_1">
			<g id="icons">
				<g id="google_plus">
					<path class="st0" d="M13.5,2.5V0h-1v2.5H10v1h2.5v2.4h1V3.5H16v-1L13.5,2.5z M8.9,0H4.7C2.8,0,1,1.5,1,3.1
						c0,1.7,1.4,3.1,3.1,3.1c0,0,0.1,0,0.1,0c0.1,0,0.3,0,0.4,0C4.4,6.4,4.4,6.7,4.4,7c0,0.4,0.2,0.9,0.6,1.1H4.2
						c-2.3,0-4.2,1.5-4.2,3s2,2.6,4.4,2.6c2.7,0,4.1-1.7,4.1-3.2C8.6,9.5,8,8.4,7.1,7.9C6.7,7.6,5.9,7,5.9,6.6s0.1-0.7,0.8-1.2
						C7.5,4.9,7.9,4.2,8,3.3c0-1-0.5-1.9-1.4-2.3h1.3L8.9,0z M7.4,10.3c0,0.1,0.1,0.3,0.1,0.4c0,1.2-0.8,2-3.1,2
						c-1.6,0-2.8-0.9-2.8-2.1S3,8.5,4.7,8.5c0.3,0,0.7,0.1,1,0.2C6.6,9.3,7.2,9.6,7.4,10.3z M4.8,5.8C3.5,5.6,2.6,4.5,2.5,3.2
						C2.3,1.8,3,0.7,4.1,0.8C5.4,1,6.4,2,6.5,3.3C6.7,4.7,5.9,5.8,4.8,5.8z"/>
				</g>
			</g>
		</g>
	</g>
</g>
</svg>
