<?xml version="1.0" encoding="utf-8"?>
<!-- Generator: Adobe Illustrator 21.0.1, SVG Export Plug-In . SVG Version: 6.00 Build 0)  -->
<svg version="1.1" id="Layer_1" xmlns="http://www.w3.org/2000/svg" xmlns:xlink="http://www.w3.org/1999/xlink" x="0px" y="0px"
	 viewBox="0 0 32 30.5" style="enable-background:new 0 0 32 30.5;" xml:space="preserve">
<style type="text/css">
	.st0{fill:#FFFFFF;}
</style>
<title>svgAsset 10</title>
<g id="Layer_2">
	<g id="service">
		<g id="_5">
			<g id="HOME">
				<path class="st0" d="M3,18.5V29c0,0.8,0.7,1.5,1.5,1.5l0,0h14v-12h6v12h3c0.8,0,1.5-0.7,1.5-1.5l0,0V18.5l-13-13L3,18.5z
					 M13.5,24.5h-6v-6h6V24.5z M31.6,15L31.6,15L26,9.4V5c0-0.8-0.7-1.5-1.5-1.5S23,4.2,23,5v1.4l-5.9-5.9l0,0
					C16.9,0.2,16.5,0,16.2,0H16c-0.4,0-0.8,0.2-1.1,0.5L0.5,14.9c-0.6,0.6-0.7,1.5-0.1,2.1s1.5,0.7,2.1,0.1c0,0,0,0,0.1-0.1l0,0
					L16,3.6l0,0l0,0l0,0l13.5,13.5l0,0c0.7,0.5,1.6,0.4,2.1-0.3C32,16.3,32,15.5,31.6,15z"/>
			</g>
		</g>
	</g>
</g>
</svg>
