<?xml version="1.0" encoding="utf-8"?>
<!-- Generator: Adobe Illustrator 21.0.1, SVG Export Plug-In . SVG Version: 6.00 Build 0)  -->
<svg version="1.1" id="Layer_1" xmlns="http://www.w3.org/2000/svg" xmlns:xlink="http://www.w3.org/1999/xlink" x="0px" y="0px"
	 viewBox="0 0 16 16" style="enable-background:new 0 0 16 16;" xml:space="preserve">
<style type="text/css">
	.st0{fill:#FFFFFF;}
</style>
<title>Asset 30</title>
<g id="Layer_2">
	<g id="footer">
		<g id="_1">
			<g id="icons">
				<g id="instagram">
					<path class="st0" d="M14,0H2C0.9,0,0,0.9,0,2v12c0,1.1,0.9,2,2,2h12c1.1,0,2-0.9,2-2V2C16,0.9,15.1,0,14,0z M4.9,7.7L4.9,7.7
						c0-0.2,0-0.2,0-0.3V7.3c0-0.1,0-0.1,0.1-0.2V6.9l0.1-0.2l0,0l0,0c0.7-1.6,2.6-2.2,4.1-1.5c0.7,0.3,1.2,0.8,1.5,1.5l0,0l0,0
						l0.1,0.2V7c0,0.1,0,0.1,0.1,0.2v0.1c0,0.1,0,0.2,0,0.2s0,0.1,0,0.1c0.6,1.6-0.2,3.4-1.8,4s-3.4-0.2-4-1.8
						C4.8,9.2,4.8,8.6,4.9,8C4.9,7.9,4.9,7.8,4.9,7.7z M14.2,13.4c0,0.4-0.4,0.8-0.8,0.8l0,0H2.6c-0.4,0-0.8-0.4-0.8-0.8l0,0V6.7
						h1.5c-0.7,2.6,0.8,5.3,3.4,6s5.3-0.8,6-3.4c0.2-0.8,0.2-1.7,0-2.6h1.5V13.4z M14.2,4.2c0,0.4-0.4,0.8-0.8,0.8l0,0h-1.6
						C11.4,5,11,4.6,11,4.2c0,0,0,0,0,0V2.6c0-0.4,0.4-0.8,0.8-0.8l0,0h1.6c0.4,0,0.8,0.4,0.8,0.8l0,0L14.2,4.2z"/>
				</g>
			</g>
		</g>
	</g>
</g>
</svg>
