<?xml version="1.0" encoding="utf-8"?>
<!-- Generator: Adobe Illustrator 21.0.1, SVG Export Plug-In . SVG Version: 6.00 Build 0)  -->
<svg version="1.1" id="Layer_1" xmlns="http://www.w3.org/2000/svg" xmlns:xlink="http://www.w3.org/1999/xlink" x="0px" y="0px"
	 viewBox="0 0 32 32" style="enable-background:new 0 0 32 32;" xml:space="preserve">
<style type="text/css">
	.st0{fill:#FFFFFF;}
</style>
<title>svgAsset 9</title>
<g id="Layer_2">
	<g id="service">
		<g id="_4">
			<g id="BOOK_2">
				<path class="st0" d="M5.4,16.4l5.5,2.5l0,0c0.7,0.4,1.6,0.1,2-0.7c0.4-0.7,0.1-1.6-0.7-2c0,0-0.1,0-0.1,0l-5.5-2.5
					c-0.8-0.3-1.6,0-2,0.8C4.4,15.2,4.7,16,5.4,16.4z M5.4,10.9l5.5,2.5c0.7,0.4,1.6,0.1,2-0.7s0.1-1.6-0.7-2c0,0-0.1,0-0.1,0
					L6.6,8.1c-0.8-0.3-1.6,0-2,0.8C4.4,9.7,4.7,10.5,5.4,10.9z M20.5,24.5c0.2,0,0.4,0,0.6-0.1l5.5-2.5c0.8-0.3,1.1-1.2,0.8-2
					c-0.3-0.8-1.2-1.1-2-0.8c0,0-0.1,0-0.1,0l-5.5,2.5c-0.8,0.3-1.1,1.2-0.8,2C19.4,24.2,19.9,24.5,20.5,24.5L20.5,24.5z M5.4,21.9
					l5.5,2.5c0.7,0.4,1.6,0.1,2-0.7c0.4-0.7,0.1-1.6-0.7-2c0,0-0.1,0-0.1,0l-5.5-2.5c-0.8-0.3-1.6,0-2,0.8
					C4.4,20.7,4.7,21.5,5.4,21.9z M30.5,0c-0.2,0-0.4,0-0.6,0.1l0,0L16,5.9L2.1,0.1l0,0c-0.8-0.3-1.6,0-2,0.8C0,1.1,0,1.3,0,1.5v23
					c0,0.6,0.4,1.2,0.9,1.4l14.5,6c0.4,0.2,0.8,0.2,1.2,0l14.5-6c0.6-0.2,0.9-0.8,0.9-1.4v-23C32,0.7,31.3,0,30.5,0z M14.5,28.3
					L3,23.5V3.7l11.5,4.8V28.3z M29,23.5l-11.5,4.8V8.5L29,3.7V23.5z M20.5,19c0.2,0,0.4,0,0.6-0.1l0,0l5.5-2.5c0.7-0.4,1-1.3,0.7-2
					c-0.4-0.7-1.2-1-1.9-0.7l-5.5,2.5c-0.8,0.3-1.1,1.2-0.7,2C19.4,18.7,19.9,19,20.5,19z M20.5,13.5c0.2,0,0.4,0,0.6-0.1l5.5-2.5
					c0.8-0.3,1.1-1.2,0.8-2s-1.2-1.1-2-0.8c0,0-0.1,0-0.1,0l-5.5,2.5c-0.8,0.3-1.1,1.2-0.8,2C19.4,13.2,19.9,13.5,20.5,13.5
					L20.5,13.5z"/>
			</g>
		</g>
	</g>
</g>
</svg>
