<?xml version="1.0" encoding="utf-8"?>
<!-- Generator: Adobe Illustrator 21.0.1, SVG Export Plug-In . SVG Version: 6.00 Build 0)  -->
<svg version="1.1" id="Layer_1" xmlns="http://www.w3.org/2000/svg" xmlns:xlink="http://www.w3.org/1999/xlink" x="0px" y="0px"
	 viewBox="0 0 19.6 25.7" style="enable-background:new 0 0 19.6 25.7;" xml:space="preserve">
<style type="text/css">
	.st0{fill:#FFFFFF;}
</style>
<title>svgAsset 18</title>
<g id="Layer_2">
	<g id="our_team">
		<g id="_1">
			<g id="share">
				<g id="pinterest">
					<path class="st0" d="M19.2,6.3c-0.3-1.2-1-2.3-1.8-3.3c-0.8-0.9-1.9-1.7-3-2.2C13,0.2,11.5-0.1,10.1,0C9.5,0,9,0.1,8.4,0.1
						C7.1,0.3,5.7,0.8,4.5,1.5C2.3,2.8,0.7,5.1,0.2,7.6C0,8.7,0,9.8,0.2,10.9c0.2,1.5,1.1,2.9,2.4,3.7c0.2,0.1,0.4,0.2,0.6,0.2
						c0.5,0,0.5-0.6,0.6-1s0.3-0.8,0.1-1.2s-0.3-0.4-0.5-0.6C3,11.3,2.8,10.5,2.8,9.6c0-1.2,0.3-2.4,0.8-3.4c1-1.9,2.8-3.2,4.9-3.6
						c1.3-0.2,2.5-0.1,3.8,0.2c1,0.3,1.9,0.9,2.5,1.7c0.7,0.9,1.1,2,1.1,3.1c0,0.7,0,1.3-0.1,2c-0.1,1.7-0.7,3.3-1.7,4.7
						c-0.6,0.9-1.6,1.5-2.6,1.6c-0.6,0-1.2-0.1-1.6-0.5c-0.4-0.3-0.7-0.8-0.9-1.3c-0.1-0.6,0-1.2,0.2-1.8c0.3-1.2,0.7-2.1,0.9-3.3
						c0.2-0.6,0.2-1.3,0.1-1.9C10.2,6.7,9.9,6.3,9.4,6C8.9,5.7,8.3,5.7,7.7,5.9C6.7,6.3,6,7.1,5.8,8.2c-0.2,0.6-0.2,1.3-0.1,1.9
						c0.1,0.6,0.2,1.2,0.4,1.7c0,0.2,0,0.3-0.1,0.4c-0.5,2.1-1,4.1-1.4,6.2c-0.3,1.1-0.5,2.3-0.5,3.5c-0.1,1.1-0.1,2.2,0,3.3
						c0,0.2,0,0.3,0.2,0.3s0.1,0.3,0.6-0.4c0.9-1.1,1.5-2.2,2-3.5c0.3-0.8,0.5-1.6,0.7-2.5c0.2-0.9,0.4-1.7,0.6-2.6
						c0.3,0.5,0.8,1,1.3,1.2c0.6,0.3,1.3,0.5,2,0.6c0.8,0,1.5-0.1,2.2-0.3c0.6-0.2,1.2-0.5,1.8-0.8c2.1-1.5,3.5-3.9,3.8-6.5
						c0.2-0.8,0.3-1.6,0.3-2.4C19.6,7.8,19.4,7,19.2,6.3z"/>
				</g>
			</g>
		</g>
	</g>
</g>
</svg>
