<?xml version="1.0" encoding="utf-8"?>
<!-- Generator: Adobe Illustrator 21.0.1, SVG Export Plug-In . SVG Version: 6.00 Build 0)  -->
<svg version="1.1" id="Layer_1" xmlns="http://www.w3.org/2000/svg" xmlns:xlink="http://www.w3.org/1999/xlink" x="0px" y="0px"
	 viewBox="0 0 17.6 17.6" style="enable-background:new 0 0 17.6 17.6;" xml:space="preserve">
<style type="text/css">
	.st0{fill:#FFFFFF;}
</style>
<title>svgAsset 4</title>
<g id="Layer_2">
	<g id="banner">
		<g id="menu">
			<g id="MAGNIFYING_GLASS">
				<path class="st0" d="M17.1,14.8l-4.8-4.8c1.9-3.1,0.8-7.2-2.3-9.1S2.7,0.1,0.9,3.2s-0.8,7.2,2.3,9.1c2.1,1.2,4.7,1.2,6.7,0
					l4.8,4.8c0.7,0.6,1.7,0.6,2.3-0.1C17.7,16.4,17.7,15.4,17.1,14.8L17.1,14.8z M6.6,11.6c-2.8,0-5-2.2-5-4.9s2.2-5,4.9-5
					c2.8,0,5,2.2,5,4.9c0,0,0,0,0,0C11.6,9.3,9.3,11.5,6.6,11.6z"/>
			</g>
		</g>
	</g>
</g>
</svg>
