<?xml version="1.0" encoding="utf-8"?>
<!-- Generator: Adobe Illustrator 21.0.1, SVG Export Plug-In . SVG Version: 6.00 Build 0)  -->
<svg version="1.1" id="Layer_1" xmlns="http://www.w3.org/2000/svg" xmlns:xlink="http://www.w3.org/1999/xlink" x="0px" y="0px"
	 viewBox="0 0 32 32" style="enable-background:new 0 0 32 32;" xml:space="preserve">
<style type="text/css">
	.st0{fill:#FFFFFF;}
</style>
<title>svgAsset 2</title>
<g id="Layer_2">
	<g id="service">
		<g id="_2">
			<g id="LINE_GRAPH">
				<path class="st0" d="M6,19c0.3,0,0.6-0.1,0.8-0.3l3.1-2l6.7,4.4c0.5,0.4,1.2,0.4,1.7,0l0,0l8.5-6l0,0c0.7-0.5,0.8-1.4,0.3-2.1
					c-0.5-0.7-1.4-0.8-2.1-0.3l-7.6,5.4l-6.6-4.4l0,0c-0.5-0.3-1.1-0.3-1.6,0l0,0l-4,2.5l0,0c-0.7,0.4-0.9,1.4-0.5,2.1
					C5,18.7,5.5,19,6,19z M30.5,0h-29C0.7,0,0,0.7,0,1.5v29C0,31.3,0.7,32,1.5,32h29c0.8,0,1.5-0.7,1.5-1.5v-29
					C32,0.7,31.3,0,30.5,0z M29,29H3V3h26V29z"/>
			</g>
		</g>
	</g>
</g>
</svg>
