<?xml version="1.0" encoding="utf-8"?>
<!-- Generator: Adobe Illustrator 21.0.1, SVG Export Plug-In . SVG Version: 6.00 Build 0)  -->
<svg version="1.1" id="Layer_1" xmlns="http://www.w3.org/2000/svg" xmlns:xlink="http://www.w3.org/1999/xlink" x="0px" y="0px"
	 viewBox="0 0 10 16" style="enable-background:new 0 0 10 16;" xml:space="preserve">
<style type="text/css">
	.st0{fill:#FFFFFF;}
</style>
<title>svgAsset 24</title>
<g id="Layer_2">
	<g id="footer">
		<g id="_1">
			<g id="icons">
				<g id="tumblr">
					<path class="st0" d="M7.6,13.4c-0.4,0-0.8-0.1-1.2-0.3c-0.3-0.2-0.5-0.4-0.6-0.7c-0.1-0.6-0.1-1.2-0.1-1.7V6.6h3.7V3.7H5.7V0
						H3.4C3.4,0.7,3.2,1.4,2.9,2C2.6,2.5,2.3,3,1.8,3.4C1.3,3.8,0.6,4.1,0,4.3v2.3h2.2v5.6c0,0.6,0.1,1.1,0.2,1.7
						c0.2,0.4,0.5,0.8,0.8,1.1c0.4,0.4,0.9,0.6,1.4,0.8C5.2,15.9,5.8,16,6.4,16c0.6,0,1.2-0.1,1.8-0.2c0.6-0.2,1.3-0.4,1.9-0.7v-2.5
						C9.3,13.1,8.5,13.4,7.6,13.4z"/>
				</g>
			</g>
		</g>
	</g>
</g>
</svg>
