<svg xmlns="http://www.w3.org/2000/svg" viewBox="0 0 31.95 22.52"><defs><style>.cls-1{fill:#fff;fill-rule:evenodd;}</style></defs><title>svgAsset 5</title><g id="Layer_2" data-name="Layer 2"><g id="about_us" data-name="about us"><g id="pics"><g id="_1" data-name="1"><g id="USERS"><path class="cls-1" d="M20.42,16c-1.84-.91-1.13-.21-3.4-1.15s-2.8-1.24-2.8-1.24l0-2.14a4,4,0,0,0,1.11-2.67c.53.15.71-.62.74-1.11s.31-2-.33-1.82a13.21,13.21,0,0,0,.19-2.36C15.75,1.86,14.59.13,11.68,0A4.28,4.28,0,0,0,7.44,3.53a13.09,13.09,0,0,0,.18,2.36C7,5.75,7.25,7.24,7.28,7.71S7.49,9,8,8.82A4,4,0,0,0,9.13,11.5l0,2.15a26,26,0,0,1-2.8,1.26C4,15.84,4.75,15.1,2.91,16,0,17.46,0,21.43,0,21.43H0a1.09,1.09,0,0,0,1.09,1.09H22.24a1.09,1.09,0,0,0,1.09-1.09h0S23.33,17.46,20.42,16ZM32,21.53s0-3.61-2.65-4.93c-1.68-.83-1-.19-3.09-1s-2.55-1.13-2.55-1.13l0-1.95a3.64,3.64,0,0,0,1-2.43c.48.14.64-.56.67-1s.28-1.78-.3-1.66a12,12,0,0,0,.17-2.15C25.05,3.73,24,2.15,21.35,2a3.89,3.89,0,0,0-3.86,3.21,11.92,11.92,0,0,0,.16,2.15c-.59-.12-.34,1.23-.31,1.66s.19,1.15.67,1a3.66,3.66,0,0,0,1,2.43l0,2a6,6,0,0,1,2.21.73c3.3,1.64,3.3,6.14,3.3,6.14h0a1.24,1.24,0,0,1-1,1.21H31a1,1,0,0,0,1-1h0Z"/></g></g></g></g></g></svg>