<?xml version="1.0" encoding="utf-8"?><svg xmlns="http://www.w3.org/2000/svg" xmlns:xlink="http://www.w3.org/1999/xlink"><symbol viewBox="0 0 512 512" id="alarm" xmlns="http://www.w3.org/2000/svg"><path d="M256 64C132.288 64 32 164.288 32 288s100.288 224 224 224 224-100.288 224-224S379.712 64 256 64zm0 404c-99.412 0-180-80.589-180-180 0-99.412 80.588-180 180-180 99.411 0 180 80.588 180 180 0 99.411-80.589 180-180 180zm211.392-324.413C475.413 129.561 480 113.316 480 96c0-53.02-42.98-96-96-96-30.909 0-58.401 14.611-75.96 37.298 65.942 13.618 122.603 52.599 159.352 106.289zM203.96 37.298C186.402 14.611 158.909 0 128 0 74.98 0 32 42.98 32 96c0 17.316 4.587 33.561 12.608 47.587 36.75-53.69 93.411-92.671 159.352-106.289z"/><path d="M256 288V160h-32v160h128v-32z"/></symbol><symbol viewBox="0 0 512 512" id="bubble" xmlns="http://www.w3.org/2000/svg"><title/><path d="M256 32c141.385 0 256 93.125 256 208S397.385 448 256 448c-13.578 0-26.905-.867-39.912-2.522C161.099 500.467 95.463 510.328 32 511.776v-13.458c34.268-16.789 64-47.37 64-82.318 0-4.877-.379-9.665-1.082-14.348C37.02 363.52 0 305.275 0 240 0 125.125 114.615 32 256 32z"/></symbol><symbol viewBox="0 0 576 512" id="bubbles" xmlns="http://www.w3.org/2000/svg"><title/><path d="M240 0c132.548 0 240 86.957 240 194.224S372.548 388.448 240 388.448c-12.729 0-25.223-.81-37.417-2.355C151.03 437.44 91.497 446.647 32 448v-12.567c32.126-15.677 58-44.233 58-76.867 0-4.553-.356-9.024-1.015-13.397C34.706 309.562 0 255.175 0 194.224 0 86.957 107.452 0 240 0zm258 435.343c0 27.971 18.157 52.449 46 65.886V512c-51.563-1.159-98.893-9.051-143.571-53.063a260.682 260.682 0 0 1-32.429 2.02c-47.735 0-91.704-12.879-126.807-34.52 72.337-.253 140.63-23.427 192.417-65.336 26.104-21.126 46.697-45.913 61.207-73.674C510.2 257.994 518 226.636 518 194.224c0-5.224-.225-10.418-.629-15.584C553.656 208.607 576 249.451 576 294.478c0 52.244-30.079 98.861-77.12 129.382a76.177 76.177 0 0 0-.88 11.483z"/></symbol><symbol viewBox="0 0 512 512" id="cart" xmlns="http://www.w3.org/2000/svg"><title/><path d="M192 464c0 26.51-21.49 48-48 48s-48-21.49-48-48 21.49-48 48-48 48 21.49 48 48zM512 464c0 26.51-21.49 48-48 48s-48-21.49-48-48 21.49-48 48-48 48 21.49 48 48zM512 256V64H128c0-17.673-14.327-32-32-32H0v32h64l24.037 206.027C73.39 281.756 64 299.777 64 320c0 35.348 28.654 64 64 64h384v-32H128c-17.673 0-32-14.327-32-32 0-.109.007-.218.008-.328L512 256z"/></symbol><symbol viewBox="0 0 512 512" id="display" xmlns="http://www.w3.org/2000/svg"><title/><path d="M0 32v320h512V32H0zm480 288H32V64h448v256zm-144 64H176l-16 64-32 32h256l-32-32z"/></symbol><symbol viewBox="0 0 512 512" id="dribbble" xmlns="http://www.w3.org/2000/svg"><title/><path d="M256 512C114.8 512 0 397.2 0 256S114.8 0 256 0s256 114.8 256 256-114.8 256-256 256zm215.9-221c-7.5-2.4-67.7-20.3-136.2-9.3 28.6 78.6 40.2 142.6 42.5 155.9 49-33.2 84-85.7 93.7-146.6zM341.4 457.6c-3.3-19.2-15.9-86-46.6-165.8-.5.2-1 .3-1.4.5-123.4 43-167.7 128.5-171.6 136.5C158.9 457.7 205.5 475 256 475c30.3 0 59.2-6.2 85.4-17.4zM93.5 402.5c5-8.5 65-107.8 177.7-144.3 2.8-.9 5.7-1.8 8.6-2.6-5.5-12.4-11.5-24.9-17.7-37.1C153 251.2 47 249.8 37.4 249.7c-.1 2.2-.1 4.4-.1 6.7 0 56.1 21.3 107.4 56.2 146.1zM42 211.5c9.8.1 99.9.5 202.2-26.6-36.2-64.4-75.3-118.6-81.1-126.5-61.2 28.9-107 85.3-121.1 153.1zM204.8 43.7c6 8.1 45.8 62.2 81.6 128 77.8-29.1 110.7-73.4 114.6-79-38.6-34.3-89.4-55.1-145-55.1-17.6.1-34.8 2.2-51.2 6.1zm220.5 74.4c-4.6 6.2-41.3 53.2-122.1 86.2 5.1 10.4 10 21 14.5 31.7 1.6 3.8 3.2 7.5 4.7 11.3 72.8-9.1 145.1 5.5 152.3 7-.5-51.6-19-99-49.4-136.2z"/></symbol><symbol viewBox="0 0 512 512" id="enlarge" xmlns="http://www.w3.org/2000/svg"><title/><path d="M512 0H304l80 80-96 96 48 48 96-96 80 80zM512 512V304l-80 80-96-96-48 48 96 96-80 80zM0 512h208l-80-80 96-96-48-48-96 96-80-80zM0 0v208l80-80 96 96 48-48-96-96 80-80z"/></symbol><symbol viewBox="0 0 512 512" id="equalizer" xmlns="http://www.w3.org/2000/svg"><title/><path d="M448 224h8c13.2 0 24-10.8 24-24v-80c0-13.2-10.8-24-24-24h-8V0h-64v96h-8c-13.2 0-24 10.8-24 24v80c0 13.2 10.8 24 24 24h8v288h64V224zm-64-96h64v64h-64v-64zm-88 288c13.2 0 24-10.8 24-24v-80c0-13.2-10.8-24-24-24h-8V0h-64v288h-8c-13.2 0-24 10.8-24 24v80c0 13.2 10.8 24 24 24h8v96h64v-96h8zm-72-96h64v64h-64v-64zm-88-96c13.2 0 24-10.8 24-24v-80c0-13.2-10.8-24-24-24h-8V0H64v96h-8c-13.2 0-24 10.8-24 24v80c0 13.2 10.8 24 24 24h8v288h64V224h8zm-72-96h64v64H64v-64z"/></symbol><symbol viewBox="0 0 512 512" id="eye" xmlns="http://www.w3.org/2000/svg"><title/><path d="M256 96C144.341 96 47.559 161.021 0 256c47.559 94.979 144.341 160 256 160 111.656 0 208.438-65.021 256-160-47.558-94.979-144.344-160-256-160zm126.225 84.852c30.081 19.187 55.571 44.887 74.717 75.148-19.146 30.261-44.637 55.961-74.718 75.148C344.427 355.257 300.779 368 256 368c-44.78 0-88.429-12.743-126.226-36.852C99.695 311.962 74.205 286.262 55.058 256c19.146-30.262 44.637-55.962 74.717-75.148a233.42 233.42 0 0 1 5.93-3.65C130.725 190.866 128 205.613 128 221c0 70.691 57.308 128 128 128s128-57.309 128-128c0-15.387-2.726-30.134-7.704-43.799a240.69 240.69 0 0 1 5.929 3.651zM256 208c0 26.51-21.49 48-48 48s-48-21.49-48-48 21.49-48 48-48 48 21.491 48 48z"/></symbol><symbol viewBox="0 0 512 512" id="facebook" xmlns="http://www.w3.org/2000/svg"><title/><path d="M304 96h80V0h-80c-61.757 0-112 50.243-112 112v48h-64v96h64v256h96V256h80l16-96h-96v-48c0-8.673 7.327-16 16-16z"/></symbol><symbol viewBox="0 0 512 512" id="google-plus" xmlns="http://www.w3.org/2000/svg"><title/><path d="M162.9 228.7v55.9h92.4c-3.7 24-27.9 70.3-92.4 70.3-55.6 0-101-46.1-101-102.9s45.4-102.9 101-102.9c31.7 0 52.8 13.5 64.9 25.1l44.2-42.6C243.6 105.1 206.8 89 162.9 89 72.8 89.1 0 161.9 0 252s72.8 162.9 162.9 162.9c94 0 156.4-66.1 156.4-159.2 0-10.7-1.2-18.9-2.6-27H162.9zM512 224h-48v-48h-48v48h-48v48h48v48h48v-48h48z"/></symbol><symbol viewBox="0 0 512 512" id="home" xmlns="http://www.w3.org/2000/svg"><title/><path d="M512 295.222L256 96.509 0 295.223v-81.019L256 15.491l256 198.714zM448 288v192H320V352H192v128H64V288l192-144z"/></symbol><symbol viewBox="0 0 512 512" id="image" xmlns="http://www.w3.org/2000/svg"><title/><path d="M479.942 64a.53.53 0 0 1 .058.058v383.885a.53.53 0 0 1-.058.058H32.057a.446.446 0 0 1-.057-.058V64.057a.511.511 0 0 1 .057-.057h447.885zM480 32H32C14.4 32 0 46.4 0 64v384c0 17.6 14.4 32 32 32h448c17.6 0 32-14.4 32-32V64c0-17.6-14.4-32-32-32z"/><path d="M416 144c0 26.51-21.49 48-48 48s-48-21.49-48-48 21.49-48 48-48 48 21.49 48 48zM448 416H64v-64l112-192 128 160h32l112-96z"/></symbol><symbol viewBox="0 0 512 512" id="instagram" xmlns="http://www.w3.org/2000/svg"><title/><path d="M256 46.1c68.4 0 76.5.3 103.4 1.5 25 1.1 38.5 5.3 47.5 8.8 11.9 4.6 20.5 10.2 29.4 19.1 9 9 14.5 17.5 19.2 29.4 3.5 9 7.7 22.6 8.8 47.5 1.2 27 1.5 35.1 1.5 103.4s-.3 76.5-1.5 103.4c-1.1 25-5.3 38.5-8.8 47.5-4.6 11.9-10.2 20.5-19.1 29.4-9 9-17.5 14.5-29.4 19.2-9 3.5-22.6 7.7-47.5 8.8-27 1.2-35.1 1.5-103.4 1.5s-76.5-.3-103.4-1.5c-25-1.1-38.5-5.3-47.5-8.8-11.9-4.6-20.5-10.2-29.4-19.1-9-9-14.5-17.5-19.2-29.4-3.5-9-7.7-22.6-8.8-47.5-1.2-27-1.5-35.1-1.5-103.4s.3-76.5 1.5-103.4c1.1-25 5.3-38.5 8.8-47.5 4.6-11.9 10.2-20.5 19.1-29.4 9-9 17.5-14.5 29.4-19.2 9-3.5 22.6-7.7 47.5-8.8 26.9-1.2 35-1.5 103.4-1.5zM256 0c-69.5 0-78.2.3-105.5 1.5-27.2 1.2-45.9 5.6-62.1 11.9C71.5 20 57.2 28.7 43 43 28.7 57.2 20 71.5 13.4 88.3c-6.3 16.3-10.7 34.9-11.9 62.1C.3 177.8 0 186.5 0 256s.3 78.2 1.5 105.5c1.2 27.2 5.6 45.9 11.9 62.1C20 440.5 28.7 454.8 43 469c14.2 14.2 28.5 23 45.3 29.5 16.3 6.3 34.9 10.7 62.1 11.9 27.3 1.2 36 1.5 105.5 1.5s78.2-.3 105.5-1.5c27.2-1.2 45.9-5.6 62.1-11.9 16.8-6.5 31.1-15.3 45.3-29.5s23-28.5 29.5-45.3c6.3-16.3 10.7-34.9 11.9-62.1 1.2-27.3 1.5-36 1.5-105.5s-.3-78.2-1.5-105.5c-1.2-27.2-5.6-45.9-11.9-62.1-6.3-17-15-31.3-29.3-45.5-14.2-14.2-28.5-23-45.3-29.5-16.3-6.3-34.9-10.7-62.1-11.9C334.2.3 325.5 0 256 0z"/><path d="M256 124.5c-72.6 0-131.5 58.9-131.5 131.5S183.4 387.5 256 387.5 387.5 328.6 387.5 256 328.6 124.5 256 124.5zm0 216.8c-47.1 0-85.3-38.2-85.3-85.3s38.2-85.3 85.3-85.3c47.1 0 85.3 38.2 85.3 85.3s-38.2 85.3-85.3 85.3zM423.4 119.3c0 16.955-13.745 30.7-30.7 30.7S362 136.255 362 119.3s13.745-30.7 30.7-30.7 30.7 13.745 30.7 30.7z"/></symbol><symbol viewBox="0 0 512 512" id="location" xmlns="http://www.w3.org/2000/svg"><title/><path d="M256 0C167.634 0 96 71.634 96 160c0 160 160 352 160 352s160-192 160-352C416 71.634 344.365 0 256 0zm0 258c-54.124 0-98-43.876-98-98s43.876-98 98-98 98 43.876 98 98-43.876 98-98 98zm-62-98c0-34.242 27.758-62 62-62s62 27.758 62 62c0 34.242-27.759 62-62 62s-62-27.758-62-62z"/></symbol><symbol viewBox="0 0 512 512" id="newspaper" xmlns="http://www.w3.org/2000/svg"><path d="M448 128V64H0v352c0 17.673 14.327 32 32 32h432c26.511 0 48-21.489 48-48V128h-64zm-32 288H32V96h384v320zM64 160h320v32H64zm192 64h128v32H256zm0 64h128v32H256zm0 64h96v32h-96zM64 224h160v160H64z"/></symbol><symbol viewBox="0 0 512 512" id="pinterest" xmlns="http://www.w3.org/2000/svg"><title/><path d="M256 0C114.8 0 0 114.8 0 256s114.8 256 256 256 256-114.8 256-256S397.2 0 256 0zm0 477.8c-22.9 0-44.9-3.5-65.7-9.9 9-14.7 22.6-38.9 27.6-58.1 2.7-10.4 13.8-52.7 13.8-52.7 7.2 13.8 28.4 25.5 50.8 25.5 66.9 0 115.1-61.5 115.1-138 0-73.3-59.8-128.1-136.7-128.1-95.7 0-146.5 64.3-146.5 134.2 0 32.5 17.3 73 45 85.9 4.2 2 6.4 1.1 7.4-3 .7-3.1 4.5-18.1 6.2-25.2.5-2.2.3-4.2-1.5-6.4-9.2-11.1-16.5-31.6-16.5-50.6 0-48.9 37-96.3 100.1-96.3 54.5 0 92.6 37.1 92.6 90.2 0 60-30.3 101.6-69.7 101.6-21.8 0-38.1-18-32.8-40.1 6.3-26.4 18.4-54.8 18.4-73.8 0-17-9.1-31.2-28.1-31.2-22.3 0-40.1 23-40.1 53.9 0 19.6 6.6 32.9 6.6 32.9s-22 92.9-26 110.2c-4.5 19.2-2.7 46.1-.8 63.6C92.7 430.2 34.2 350 34.2 256c0-122.5 99.3-221.8 221.8-221.8S477.8 133.5 477.8 256c0 122.5-99.3 221.8-221.8 221.8z"/></symbol><symbol viewBox="0 0 512 512" id="search" xmlns="http://www.w3.org/2000/svg"><title/><path d="M496.131 435.698L374.855 332.551c-12.537-11.283-25.945-16.463-36.776-15.963C366.707 283.054 384 239.549 384 192 384 85.961 298.039 0 192 0S0 85.961 0 192s85.961 192 192 192c47.549 0 91.054-17.293 124.588-45.922-.5 10.831 4.68 24.239 15.963 36.776L435.698 496.13c17.661 19.623 46.511 21.277 64.11 3.678s15.946-46.449-3.677-64.11zM192 320c-70.692 0-128-57.308-128-128S121.308 64 192 64s128 57.308 128 128-57.307 128-128 128z"/></symbol><symbol viewBox="0 0 512 512" id="stats-dots" xmlns="http://www.w3.org/2000/svg"><title/><path d="M64 448h448v64H0V0h64zm80-32c-26.51 0-48-21.49-48-48s21.49-48 48-48c1.414 0 2.811.074 4.194.193L199.79 234.2a47.761 47.761 0 0 1-7.79-26.201c0-26.51 21.49-48 48-48s48 21.49 48 48c0 9.671-2.87 18.666-7.79 26.201l51.596 85.993A48.863 48.863 0 0 1 336 320c1.068 0 2.124.047 3.175.115l85.178-149.061A47.766 47.766 0 0 1 416 143.999c0-26.51 21.49-48 48-48s48 21.49 48 48-21.49 48-48 48c-1.07 0-2.124-.047-3.175-.116l-85.178 149.062A47.763 47.763 0 0 1 384 368c0 26.51-21.49 48-48 48s-48-21.49-48-48c0-9.67 2.87-18.666 7.789-26.201l-51.595-85.992c-1.383.119-2.78.193-4.194.193s-2.811-.073-4.194-.193L184.21 341.8A47.755 47.755 0 0 1 192 368c0 26.51-21.49 48-48 48z"/></symbol><symbol viewBox="0 0 512 512" id="tumblr" xmlns="http://www.w3.org/2000/svg"><title/><path d="M288.016 224l-.001 117.092c0 29.709-.385 46.828 2.765 55.25 3.125 8.377 10.959 17.073 19.495 22.101 11.342 6.794 24.271 10.188 38.854 10.188 25.927 0 41.239-3.424 66.871-20.27v76.972c-21.85 10.276-40.933 16.297-58.662 20.461-17.75 4.121-36.93 6.203-57.532 6.203-23.414 0-37.228-2.943-55.205-8.828-17.979-5.934-33.33-14.403-46.01-25.27-12.725-10.961-21.511-22.604-26.424-34.916-4.913-12.318-7.358-30.207-7.358-53.622v-179.55H96.096v-72.503c20.104-6.521 42.582-15.894 56.89-28.076 14.377-12.225 25.883-26.853 34.553-43.972 8.696-17.073 14.674-38.856 17.936-65.258h82.542L288.016 128H416v96H288.016z"/></symbol><symbol viewBox="0 0 512 512" id="twitter" xmlns="http://www.w3.org/2000/svg"><title/><path d="M512 113.2c-18.8 8.4-39.1 14-60.3 16.5 21.7-13 38.3-33.6 46.2-58.1-20.3 12-42.8 20.8-66.7 25.5C412 76.7 384.7 64 354.5 64c-58 0-105 47-105 105 0 8.2.9 16.2 2.7 23.9-87.3-4.4-164.7-46.2-216.5-109.8-9 15.5-14.2 33.6-14.2 52.8 0 36.4 18.5 68.6 46.7 87.4-17.2-.5-33.4-5.3-47.6-13.1v1.3c0 50.9 36.2 93.4 84.3 103-8.8 2.4-18.1 3.7-27.7 3.7-6.8 0-13.3-.7-19.8-1.9 13.4 41.7 52.2 72.1 98.1 73-36 28.2-81.2 45-130.5 45-8.5 0-16.8-.5-25.1-1.5C46.5 462.7 101.7 480 161 480c193.2 0 298.9-160.1 298.9-298.9 0-4.6-.1-9.1-.3-13.6 20.5-14.7 38.3-33.2 52.4-54.3z"/></symbol><symbol viewBox="0 0 576 512" id="users" xmlns="http://www.w3.org/2000/svg"><title/><path d="M384 385.306v-26.39c35.249-19.864 64-69.386 64-118.916 0-79.529 0-144-96-144s-96 64.471-96 144c0 49.53 28.751 99.052 64 118.916v26.39C211.449 394.18 128 447.516 128 512h448c0-64.484-83.449-117.82-192-126.694z"/><path d="M163.598 397.664c27.655-18.075 62.04-31.818 99.894-40.207-7.527-8.892-14.354-18.811-20.246-29.51C228.039 300.33 220 269.918 220 240c0-43.021 0-83.655 15.3-116.881 14.853-32.252 41.564-52.248 79.611-59.744C306.454 25.135 283.941 0 224 0c-96 0-96 64.471-96 144 0 49.53 28.751 99.052 64 118.916v26.39C83.449 298.18 0 351.516 0 416h139.503c7.259-6.455 15.298-12.586 24.095-18.336z"/></symbol><symbol viewBox="0 0 512 512" id="yuotube" xmlns="http://www.w3.org/2000/svg"><title/><path d="M490.594 80.054C418.778 69.729 339.428 64 256.001 64c-83.43 0-162.778 5.729-234.597 16.054C7.639 133.917 0 193.429 0 256c0 62.57 7.639 122.083 21.404 175.945C93.223 442.271 172.572 448 256.001 448c83.427 0 162.776-5.729 234.593-16.055C504.36 378.083 512 318.57 512 256c0-62.571-7.64-122.083-21.406-175.946zM192.001 352V160l160 96-160 96z"/></symbol></svg>